<svg xmlns="http://www.w3.org/2000/svg" width="100" height="100"><g fill="#fff" transform="matrix(.62545 0 0 .62545 -8.515 -15.597)" fill-rule="evenodd"><rect x="101" y="55" width="68" height="8" rx="4"/><rect x="96" y="138" width="73" height="8" rx="4"/><rect x="109.828" y="77" width="59.391" height="8" rx="4"/><path d="M80.583 71.692l28.092 28.067a2.73 2.73 0 0 1 0 3.863l-43.503 43.464a2.736 2.736 0 0 1-3.867 0L17.8 103.622a2.73 2.73 0 0 1 0-3.863L46.586 71l5.203 5.643-24.608 24.585c-.241.24-.241.63 0 .871l35.753 35.72c.24.241.63.241.872 0l35.753-35.72c.24-.24.24-.63 0-.87L75.352 77.043z"/><rect x="109.828" y="118" width="59.391" height="8" rx="4"/><rect x="124" y="98" width="45" height="8" rx="4"/><path d="M68.25 59.295a7.906 7.906 0 0 1-4.175 1.179c-1.61 0-3.051-.459-4.322-1.376l.18-10.599a4.068 4.068 0 0 1 8.135 0zm.095 5.552L69 103.5l-4.087 9.149a1 1 0 0 1-1.826 0L59 103.5l.654-38.572c1.32.55 2.795.804 4.42.76 1.57-.041 2.994-.322 4.27-.84z"/></g></svg>